<mxfile host="Electron" modified="2023-10-07T15:05:33.194Z" agent="Mozilla/5.0 (Windows NT 10.0; Win64; x64) AppleWebKit/537.36 (KHTML, like Gecko) draw.io/21.7.5 Chrome/114.0.5735.289 Electron/25.8.1 Safari/537.36" etag="RLHpVT9rm-SxiwUXldpp" version="21.7.5" type="device">
  <diagram name="Страница — 1" id="pnWi4LDxmNp16B49t5PT">
    <mxGraphModel dx="1098" dy="828" grid="1" gridSize="10" guides="1" tooltips="1" connect="1" arrows="1" fold="1" page="1" pageScale="1" pageWidth="827" pageHeight="1169" math="0" shadow="0">
      <root>
        <mxCell id="0" />
        <mxCell id="1" parent="0" />
        <mxCell id="iOU1mYCxeO6ieShpGvnB-43" value="" style="group" vertex="1" connectable="0" parent="1">
          <mxGeometry x="360" y="270" width="180" height="150" as="geometry" />
        </mxCell>
        <mxCell id="iOU1mYCxeO6ieShpGvnB-1" value="plan" style="shape=table;startSize=30;container=1;collapsible=1;childLayout=tableLayout;fixedRows=1;rowLines=0;fontStyle=1;align=center;resizeLast=1;html=1;" vertex="1" parent="iOU1mYCxeO6ieShpGvnB-43">
          <mxGeometry width="180" height="150" as="geometry" />
        </mxCell>
        <mxCell id="iOU1mYCxeO6ieShpGvnB-50" value="" style="shape=tableRow;horizontal=0;startSize=0;swimlaneHead=0;swimlaneBody=0;fillColor=none;collapsible=0;dropTarget=0;points=[[0,0.5],[1,0.5]];portConstraint=eastwest;top=0;left=0;right=0;bottom=0;" vertex="1" parent="iOU1mYCxeO6ieShpGvnB-1">
          <mxGeometry y="30" width="180" height="30" as="geometry" />
        </mxCell>
        <mxCell id="iOU1mYCxeO6ieShpGvnB-51" value="FK" style="shape=partialRectangle;connectable=0;fillColor=none;top=0;left=0;bottom=0;right=0;editable=1;overflow=hidden;whiteSpace=wrap;html=1;" vertex="1" parent="iOU1mYCxeO6ieShpGvnB-50">
          <mxGeometry width="30" height="30" as="geometry">
            <mxRectangle width="30" height="30" as="alternateBounds" />
          </mxGeometry>
        </mxCell>
        <mxCell id="iOU1mYCxeO6ieShpGvnB-52" value="product_id" style="shape=partialRectangle;connectable=0;fillColor=none;top=0;left=0;bottom=0;right=0;align=left;spacingLeft=6;overflow=hidden;whiteSpace=wrap;html=1;" vertex="1" parent="iOU1mYCxeO6ieShpGvnB-50">
          <mxGeometry x="30" width="150" height="30" as="geometry">
            <mxRectangle width="150" height="30" as="alternateBounds" />
          </mxGeometry>
        </mxCell>
        <mxCell id="iOU1mYCxeO6ieShpGvnB-5" value="" style="shape=tableRow;horizontal=0;startSize=0;swimlaneHead=0;swimlaneBody=0;fillColor=none;collapsible=0;dropTarget=0;points=[[0,0.5],[1,0.5]];portConstraint=eastwest;top=0;left=0;right=0;bottom=0;" vertex="1" parent="iOU1mYCxeO6ieShpGvnB-1">
          <mxGeometry y="60" width="180" height="30" as="geometry" />
        </mxCell>
        <mxCell id="iOU1mYCxeO6ieShpGvnB-6" value="FK" style="shape=partialRectangle;connectable=0;fillColor=none;top=0;left=0;bottom=0;right=0;editable=1;overflow=hidden;whiteSpace=wrap;html=1;" vertex="1" parent="iOU1mYCxeO6ieShpGvnB-5">
          <mxGeometry width="30" height="30" as="geometry">
            <mxRectangle width="30" height="30" as="alternateBounds" />
          </mxGeometry>
        </mxCell>
        <mxCell id="iOU1mYCxeO6ieShpGvnB-7" value="shop_id" style="shape=partialRectangle;connectable=0;fillColor=none;top=0;left=0;bottom=0;right=0;align=left;spacingLeft=6;overflow=hidden;whiteSpace=wrap;html=1;" vertex="1" parent="iOU1mYCxeO6ieShpGvnB-5">
          <mxGeometry x="30" width="150" height="30" as="geometry">
            <mxRectangle width="150" height="30" as="alternateBounds" />
          </mxGeometry>
        </mxCell>
        <mxCell id="iOU1mYCxeO6ieShpGvnB-8" value="" style="shape=tableRow;horizontal=0;startSize=0;swimlaneHead=0;swimlaneBody=0;fillColor=none;collapsible=0;dropTarget=0;points=[[0,0.5],[1,0.5]];portConstraint=eastwest;top=0;left=0;right=0;bottom=0;" vertex="1" parent="iOU1mYCxeO6ieShpGvnB-1">
          <mxGeometry y="90" width="180" height="30" as="geometry" />
        </mxCell>
        <mxCell id="iOU1mYCxeO6ieShpGvnB-9" value="" style="shape=partialRectangle;connectable=0;fillColor=none;top=0;left=0;bottom=0;right=0;editable=1;overflow=hidden;whiteSpace=wrap;html=1;" vertex="1" parent="iOU1mYCxeO6ieShpGvnB-8">
          <mxGeometry width="30" height="30" as="geometry">
            <mxRectangle width="30" height="30" as="alternateBounds" />
          </mxGeometry>
        </mxCell>
        <mxCell id="iOU1mYCxeO6ieShpGvnB-10" value="plan_cnt" style="shape=partialRectangle;connectable=0;fillColor=none;top=0;left=0;bottom=0;right=0;align=left;spacingLeft=6;overflow=hidden;whiteSpace=wrap;html=1;" vertex="1" parent="iOU1mYCxeO6ieShpGvnB-8">
          <mxGeometry x="30" width="150" height="30" as="geometry">
            <mxRectangle width="150" height="30" as="alternateBounds" />
          </mxGeometry>
        </mxCell>
        <mxCell id="iOU1mYCxeO6ieShpGvnB-11" value="" style="shape=tableRow;horizontal=0;startSize=0;swimlaneHead=0;swimlaneBody=0;fillColor=none;collapsible=0;dropTarget=0;points=[[0,0.5],[1,0.5]];portConstraint=eastwest;top=0;left=0;right=0;bottom=0;" vertex="1" parent="iOU1mYCxeO6ieShpGvnB-1">
          <mxGeometry y="120" width="180" height="30" as="geometry" />
        </mxCell>
        <mxCell id="iOU1mYCxeO6ieShpGvnB-12" value="" style="shape=partialRectangle;connectable=0;fillColor=none;top=0;left=0;bottom=0;right=0;editable=1;overflow=hidden;whiteSpace=wrap;html=1;" vertex="1" parent="iOU1mYCxeO6ieShpGvnB-11">
          <mxGeometry width="30" height="30" as="geometry">
            <mxRectangle width="30" height="30" as="alternateBounds" />
          </mxGeometry>
        </mxCell>
        <mxCell id="iOU1mYCxeO6ieShpGvnB-13" value="plan_date" style="shape=partialRectangle;connectable=0;fillColor=none;top=0;left=0;bottom=0;right=0;align=left;spacingLeft=6;overflow=hidden;whiteSpace=wrap;html=1;" vertex="1" parent="iOU1mYCxeO6ieShpGvnB-11">
          <mxGeometry x="30" width="150" height="30" as="geometry">
            <mxRectangle width="150" height="30" as="alternateBounds" />
          </mxGeometry>
        </mxCell>
        <mxCell id="iOU1mYCxeO6ieShpGvnB-42" value="" style="group" vertex="1" connectable="0" parent="iOU1mYCxeO6ieShpGvnB-43">
          <mxGeometry x="90" y="30" width="90" height="120" as="geometry" />
        </mxCell>
        <mxCell id="iOU1mYCxeO6ieShpGvnB-14" value="int" style="shape=partialRectangle;fillColor=none;align=left;verticalAlign=middle;strokeColor=none;spacingLeft=34;rotatable=1;points=[[0,0.5],[1,0.5]];portConstraint=eastwest;dropTarget=0;movable=1;resizable=1;deletable=1;editable=1;locked=0;connectable=1;" vertex="1" parent="iOU1mYCxeO6ieShpGvnB-42">
          <mxGeometry width="90" height="30" as="geometry" />
        </mxCell>
        <mxCell id="iOU1mYCxeO6ieShpGvnB-15" value="" style="shape=partialRectangle;top=0;left=0;bottom=0;fillColor=none;stokeWidth=1;dashed=1;align=left;verticalAlign=middle;spacingLeft=4;spacingRight=4;overflow=hidden;rotatable=0;points=[];portConstraint=eastwest;part=1;" vertex="1" connectable="0" parent="iOU1mYCxeO6ieShpGvnB-14">
          <mxGeometry width="30" height="30" as="geometry" />
        </mxCell>
        <mxCell id="iOU1mYCxeO6ieShpGvnB-16" value="int" style="shape=partialRectangle;fillColor=none;align=left;verticalAlign=middle;strokeColor=none;spacingLeft=34;rotatable=0;points=[[0,0.5],[1,0.5]];portConstraint=eastwest;dropTarget=0;" vertex="1" parent="iOU1mYCxeO6ieShpGvnB-42">
          <mxGeometry y="30" width="90" height="30" as="geometry" />
        </mxCell>
        <mxCell id="iOU1mYCxeO6ieShpGvnB-17" value="" style="shape=partialRectangle;top=0;left=0;bottom=0;fillColor=none;stokeWidth=1;dashed=1;align=left;verticalAlign=middle;spacingLeft=4;spacingRight=4;overflow=hidden;rotatable=0;points=[];portConstraint=eastwest;part=1;" vertex="1" connectable="0" parent="iOU1mYCxeO6ieShpGvnB-16">
          <mxGeometry width="30" height="30" as="geometry" />
        </mxCell>
        <mxCell id="iOU1mYCxeO6ieShpGvnB-18" value="int" style="shape=partialRectangle;fillColor=none;align=left;verticalAlign=middle;strokeColor=none;spacingLeft=34;rotatable=0;points=[[0,0.5],[1,0.5]];portConstraint=eastwest;dropTarget=0;" vertex="1" parent="iOU1mYCxeO6ieShpGvnB-42">
          <mxGeometry y="60" width="90" height="30" as="geometry" />
        </mxCell>
        <mxCell id="iOU1mYCxeO6ieShpGvnB-19" value="" style="shape=partialRectangle;top=0;left=0;bottom=0;fillColor=none;stokeWidth=1;dashed=1;align=left;verticalAlign=middle;spacingLeft=4;spacingRight=4;overflow=hidden;rotatable=0;points=[];portConstraint=eastwest;part=1;" vertex="1" connectable="0" parent="iOU1mYCxeO6ieShpGvnB-18">
          <mxGeometry width="30" height="30" as="geometry" />
        </mxCell>
        <mxCell id="iOU1mYCxeO6ieShpGvnB-20" value="date" style="shape=partialRectangle;fillColor=none;align=left;verticalAlign=middle;strokeColor=none;spacingLeft=34;rotatable=0;points=[[0,0.5],[1,0.5]];portConstraint=eastwest;dropTarget=0;" vertex="1" parent="iOU1mYCxeO6ieShpGvnB-42">
          <mxGeometry y="90" width="90" height="30" as="geometry" />
        </mxCell>
        <mxCell id="iOU1mYCxeO6ieShpGvnB-21" value="" style="shape=partialRectangle;top=0;left=0;bottom=0;fillColor=none;stokeWidth=1;dashed=1;align=left;verticalAlign=middle;spacingLeft=4;spacingRight=4;overflow=hidden;rotatable=0;points=[];portConstraint=eastwest;part=1;" vertex="1" connectable="0" parent="iOU1mYCxeO6ieShpGvnB-20">
          <mxGeometry width="30" height="30" as="geometry" />
        </mxCell>
        <mxCell id="iOU1mYCxeO6ieShpGvnB-75" value="" style="group" vertex="1" connectable="0" parent="1">
          <mxGeometry x="360" y="465" width="180" height="120" as="geometry" />
        </mxCell>
        <mxCell id="iOU1mYCxeO6ieShpGvnB-56" value="shop_dns" style="shape=table;startSize=30;container=1;collapsible=1;childLayout=tableLayout;fixedRows=1;rowLines=0;fontStyle=1;align=center;resizeLast=1;html=1;" vertex="1" parent="iOU1mYCxeO6ieShpGvnB-75">
          <mxGeometry width="180" height="120" as="geometry" />
        </mxCell>
        <mxCell id="iOU1mYCxeO6ieShpGvnB-60" value="" style="shape=tableRow;horizontal=0;startSize=0;swimlaneHead=0;swimlaneBody=0;fillColor=none;collapsible=0;dropTarget=0;points=[[0,0.5],[1,0.5]];portConstraint=eastwest;top=0;left=0;right=0;bottom=0;" vertex="1" parent="iOU1mYCxeO6ieShpGvnB-56">
          <mxGeometry y="30" width="180" height="30" as="geometry" />
        </mxCell>
        <mxCell id="iOU1mYCxeO6ieShpGvnB-61" value="" style="shape=partialRectangle;connectable=0;fillColor=none;top=0;left=0;bottom=0;right=0;editable=1;overflow=hidden;whiteSpace=wrap;html=1;" vertex="1" parent="iOU1mYCxeO6ieShpGvnB-60">
          <mxGeometry width="30" height="30" as="geometry">
            <mxRectangle width="30" height="30" as="alternateBounds" />
          </mxGeometry>
        </mxCell>
        <mxCell id="iOU1mYCxeO6ieShpGvnB-62" value="date" style="shape=partialRectangle;connectable=0;fillColor=none;top=0;left=0;bottom=0;right=0;align=left;spacingLeft=6;overflow=hidden;whiteSpace=wrap;html=1;" vertex="1" parent="iOU1mYCxeO6ieShpGvnB-60">
          <mxGeometry x="30" width="150" height="30" as="geometry">
            <mxRectangle width="150" height="30" as="alternateBounds" />
          </mxGeometry>
        </mxCell>
        <mxCell id="iOU1mYCxeO6ieShpGvnB-63" value="" style="shape=tableRow;horizontal=0;startSize=0;swimlaneHead=0;swimlaneBody=0;fillColor=none;collapsible=0;dropTarget=0;points=[[0,0.5],[1,0.5]];portConstraint=eastwest;top=0;left=0;right=0;bottom=0;" vertex="1" parent="iOU1mYCxeO6ieShpGvnB-56">
          <mxGeometry y="60" width="180" height="30" as="geometry" />
        </mxCell>
        <mxCell id="iOU1mYCxeO6ieShpGvnB-64" value="FK" style="shape=partialRectangle;connectable=0;fillColor=none;top=0;left=0;bottom=0;right=0;editable=1;overflow=hidden;whiteSpace=wrap;html=1;" vertex="1" parent="iOU1mYCxeO6ieShpGvnB-63">
          <mxGeometry width="30" height="30" as="geometry">
            <mxRectangle width="30" height="30" as="alternateBounds" />
          </mxGeometry>
        </mxCell>
        <mxCell id="iOU1mYCxeO6ieShpGvnB-65" value="product_id" style="shape=partialRectangle;connectable=0;fillColor=none;top=0;left=0;bottom=0;right=0;align=left;spacingLeft=6;overflow=hidden;whiteSpace=wrap;html=1;" vertex="1" parent="iOU1mYCxeO6ieShpGvnB-63">
          <mxGeometry x="30" width="150" height="30" as="geometry">
            <mxRectangle width="150" height="30" as="alternateBounds" />
          </mxGeometry>
        </mxCell>
        <mxCell id="iOU1mYCxeO6ieShpGvnB-66" value="" style="shape=tableRow;horizontal=0;startSize=0;swimlaneHead=0;swimlaneBody=0;fillColor=none;collapsible=0;dropTarget=0;points=[[0,0.5],[1,0.5]];portConstraint=eastwest;top=0;left=0;right=0;bottom=0;" vertex="1" parent="iOU1mYCxeO6ieShpGvnB-56">
          <mxGeometry y="90" width="180" height="30" as="geometry" />
        </mxCell>
        <mxCell id="iOU1mYCxeO6ieShpGvnB-67" value="" style="shape=partialRectangle;connectable=0;fillColor=none;top=0;left=0;bottom=0;right=0;editable=1;overflow=hidden;whiteSpace=wrap;html=1;" vertex="1" parent="iOU1mYCxeO6ieShpGvnB-66">
          <mxGeometry width="30" height="30" as="geometry">
            <mxRectangle width="30" height="30" as="alternateBounds" />
          </mxGeometry>
        </mxCell>
        <mxCell id="iOU1mYCxeO6ieShpGvnB-68" value="sales_cnt" style="shape=partialRectangle;connectable=0;fillColor=none;top=0;left=0;bottom=0;right=0;align=left;spacingLeft=6;overflow=hidden;whiteSpace=wrap;html=1;" vertex="1" parent="iOU1mYCxeO6ieShpGvnB-66">
          <mxGeometry x="30" width="150" height="30" as="geometry">
            <mxRectangle width="150" height="30" as="alternateBounds" />
          </mxGeometry>
        </mxCell>
        <mxCell id="iOU1mYCxeO6ieShpGvnB-69" value="date" style="shape=partialRectangle;fillColor=none;align=left;verticalAlign=middle;strokeColor=none;spacingLeft=34;rotatable=0;points=[[0,0.5],[1,0.5]];portConstraint=eastwest;dropTarget=0;" vertex="1" parent="iOU1mYCxeO6ieShpGvnB-75">
          <mxGeometry x="90" y="30" width="90" height="30" as="geometry" />
        </mxCell>
        <mxCell id="iOU1mYCxeO6ieShpGvnB-70" value="" style="shape=partialRectangle;top=0;left=0;bottom=0;fillColor=none;stokeWidth=1;dashed=1;align=left;verticalAlign=middle;spacingLeft=4;spacingRight=4;overflow=hidden;rotatable=0;points=[];portConstraint=eastwest;part=1;" vertex="1" connectable="0" parent="iOU1mYCxeO6ieShpGvnB-69">
          <mxGeometry width="30" height="30" as="geometry" />
        </mxCell>
        <mxCell id="iOU1mYCxeO6ieShpGvnB-71" value="int" style="shape=partialRectangle;fillColor=none;align=left;verticalAlign=middle;strokeColor=none;spacingLeft=34;rotatable=0;points=[[0,0.5],[1,0.5]];portConstraint=eastwest;dropTarget=0;" vertex="1" parent="iOU1mYCxeO6ieShpGvnB-75">
          <mxGeometry x="90" y="60" width="90" height="30" as="geometry" />
        </mxCell>
        <mxCell id="iOU1mYCxeO6ieShpGvnB-72" value="" style="shape=partialRectangle;top=0;left=0;bottom=0;fillColor=none;stokeWidth=1;dashed=1;align=left;verticalAlign=middle;spacingLeft=4;spacingRight=4;overflow=hidden;rotatable=0;points=[];portConstraint=eastwest;part=1;" vertex="1" connectable="0" parent="iOU1mYCxeO6ieShpGvnB-71">
          <mxGeometry width="30" height="30" as="geometry" />
        </mxCell>
        <mxCell id="iOU1mYCxeO6ieShpGvnB-73" value="int" style="shape=partialRectangle;fillColor=none;align=left;verticalAlign=middle;strokeColor=none;spacingLeft=34;rotatable=0;points=[[0,0.5],[1,0.5]];portConstraint=eastwest;dropTarget=0;" vertex="1" parent="iOU1mYCxeO6ieShpGvnB-75">
          <mxGeometry x="90" y="90" width="90" height="30" as="geometry" />
        </mxCell>
        <mxCell id="iOU1mYCxeO6ieShpGvnB-74" value="" style="shape=partialRectangle;top=0;left=0;bottom=0;fillColor=none;stokeWidth=1;dashed=1;align=left;verticalAlign=middle;spacingLeft=4;spacingRight=4;overflow=hidden;rotatable=0;points=[];portConstraint=eastwest;part=1;" vertex="1" connectable="0" parent="iOU1mYCxeO6ieShpGvnB-73">
          <mxGeometry width="30" height="30" as="geometry" />
        </mxCell>
        <mxCell id="iOU1mYCxeO6ieShpGvnB-95" value="" style="group" vertex="1" connectable="0" parent="1">
          <mxGeometry x="647" y="490" width="180" height="120" as="geometry" />
        </mxCell>
        <mxCell id="iOU1mYCxeO6ieShpGvnB-76" value="products" style="shape=table;startSize=30;container=1;collapsible=1;childLayout=tableLayout;fixedRows=1;rowLines=0;fontStyle=1;align=center;resizeLast=1;html=1;" vertex="1" parent="iOU1mYCxeO6ieShpGvnB-95">
          <mxGeometry width="180" height="120" as="geometry" />
        </mxCell>
        <mxCell id="iOU1mYCxeO6ieShpGvnB-80" value="" style="shape=tableRow;horizontal=0;startSize=0;swimlaneHead=0;swimlaneBody=0;fillColor=none;collapsible=0;dropTarget=0;points=[[0,0.5],[1,0.5]];portConstraint=eastwest;top=0;left=0;right=0;bottom=0;" vertex="1" parent="iOU1mYCxeO6ieShpGvnB-76">
          <mxGeometry y="30" width="180" height="30" as="geometry" />
        </mxCell>
        <mxCell id="iOU1mYCxeO6ieShpGvnB-81" value="" style="shape=partialRectangle;connectable=0;fillColor=none;top=0;left=0;bottom=0;right=0;editable=1;overflow=hidden;whiteSpace=wrap;html=1;" vertex="1" parent="iOU1mYCxeO6ieShpGvnB-80">
          <mxGeometry width="30" height="30" as="geometry">
            <mxRectangle width="30" height="30" as="alternateBounds" />
          </mxGeometry>
        </mxCell>
        <mxCell id="iOU1mYCxeO6ieShpGvnB-82" value="product_id" style="shape=partialRectangle;connectable=0;fillColor=none;top=0;left=0;bottom=0;right=0;align=left;spacingLeft=6;overflow=hidden;whiteSpace=wrap;html=1;" vertex="1" parent="iOU1mYCxeO6ieShpGvnB-80">
          <mxGeometry x="30" width="150" height="30" as="geometry">
            <mxRectangle width="150" height="30" as="alternateBounds" />
          </mxGeometry>
        </mxCell>
        <mxCell id="iOU1mYCxeO6ieShpGvnB-83" value="" style="shape=tableRow;horizontal=0;startSize=0;swimlaneHead=0;swimlaneBody=0;fillColor=none;collapsible=0;dropTarget=0;points=[[0,0.5],[1,0.5]];portConstraint=eastwest;top=0;left=0;right=0;bottom=0;" vertex="1" parent="iOU1mYCxeO6ieShpGvnB-76">
          <mxGeometry y="60" width="180" height="30" as="geometry" />
        </mxCell>
        <mxCell id="iOU1mYCxeO6ieShpGvnB-84" value="" style="shape=partialRectangle;connectable=0;fillColor=none;top=0;left=0;bottom=0;right=0;editable=1;overflow=hidden;whiteSpace=wrap;html=1;" vertex="1" parent="iOU1mYCxeO6ieShpGvnB-83">
          <mxGeometry width="30" height="30" as="geometry">
            <mxRectangle width="30" height="30" as="alternateBounds" />
          </mxGeometry>
        </mxCell>
        <mxCell id="iOU1mYCxeO6ieShpGvnB-85" value="product_name" style="shape=partialRectangle;connectable=0;fillColor=none;top=0;left=0;bottom=0;right=0;align=left;spacingLeft=6;overflow=hidden;whiteSpace=wrap;html=1;" vertex="1" parent="iOU1mYCxeO6ieShpGvnB-83">
          <mxGeometry x="30" width="150" height="30" as="geometry">
            <mxRectangle width="150" height="30" as="alternateBounds" />
          </mxGeometry>
        </mxCell>
        <mxCell id="iOU1mYCxeO6ieShpGvnB-86" value="" style="shape=tableRow;horizontal=0;startSize=0;swimlaneHead=0;swimlaneBody=0;fillColor=none;collapsible=0;dropTarget=0;points=[[0,0.5],[1,0.5]];portConstraint=eastwest;top=0;left=0;right=0;bottom=0;" vertex="1" parent="iOU1mYCxeO6ieShpGvnB-76">
          <mxGeometry y="90" width="180" height="30" as="geometry" />
        </mxCell>
        <mxCell id="iOU1mYCxeO6ieShpGvnB-87" value="" style="shape=partialRectangle;connectable=0;fillColor=none;top=0;left=0;bottom=0;right=0;editable=1;overflow=hidden;whiteSpace=wrap;html=1;" vertex="1" parent="iOU1mYCxeO6ieShpGvnB-86">
          <mxGeometry width="30" height="30" as="geometry">
            <mxRectangle width="30" height="30" as="alternateBounds" />
          </mxGeometry>
        </mxCell>
        <mxCell id="iOU1mYCxeO6ieShpGvnB-88" value="price" style="shape=partialRectangle;connectable=0;fillColor=none;top=0;left=0;bottom=0;right=0;align=left;spacingLeft=6;overflow=hidden;whiteSpace=wrap;html=1;" vertex="1" parent="iOU1mYCxeO6ieShpGvnB-86">
          <mxGeometry x="30" width="150" height="30" as="geometry">
            <mxRectangle width="150" height="30" as="alternateBounds" />
          </mxGeometry>
        </mxCell>
        <mxCell id="iOU1mYCxeO6ieShpGvnB-89" value="serial" style="shape=partialRectangle;fillColor=none;align=left;verticalAlign=middle;strokeColor=none;spacingLeft=34;rotatable=0;points=[[0,0.5],[1,0.5]];portConstraint=eastwest;dropTarget=0;" vertex="1" parent="iOU1mYCxeO6ieShpGvnB-95">
          <mxGeometry x="90" y="30" width="90" height="30" as="geometry" />
        </mxCell>
        <mxCell id="iOU1mYCxeO6ieShpGvnB-90" value="" style="shape=partialRectangle;top=0;left=0;bottom=0;fillColor=none;stokeWidth=1;dashed=1;align=left;verticalAlign=middle;spacingLeft=4;spacingRight=4;overflow=hidden;rotatable=0;points=[];portConstraint=eastwest;part=1;" vertex="1" connectable="0" parent="iOU1mYCxeO6ieShpGvnB-89">
          <mxGeometry width="30" height="30" as="geometry" />
        </mxCell>
        <mxCell id="iOU1mYCxeO6ieShpGvnB-91" value="varchar" style="shape=partialRectangle;fillColor=none;align=left;verticalAlign=middle;strokeColor=none;spacingLeft=34;rotatable=0;points=[[0,0.5],[1,0.5]];portConstraint=eastwest;dropTarget=0;" vertex="1" parent="iOU1mYCxeO6ieShpGvnB-95">
          <mxGeometry x="90" y="60" width="90" height="30" as="geometry" />
        </mxCell>
        <mxCell id="iOU1mYCxeO6ieShpGvnB-92" value="" style="shape=partialRectangle;top=0;left=0;bottom=0;fillColor=none;stokeWidth=1;dashed=1;align=left;verticalAlign=middle;spacingLeft=4;spacingRight=4;overflow=hidden;rotatable=0;points=[];portConstraint=eastwest;part=1;" vertex="1" connectable="0" parent="iOU1mYCxeO6ieShpGvnB-91">
          <mxGeometry width="30" height="30" as="geometry" />
        </mxCell>
        <mxCell id="iOU1mYCxeO6ieShpGvnB-93" value="money" style="shape=partialRectangle;fillColor=none;align=left;verticalAlign=middle;strokeColor=none;spacingLeft=34;rotatable=0;points=[[0,0.5],[1,0.5]];portConstraint=eastwest;dropTarget=0;" vertex="1" parent="iOU1mYCxeO6ieShpGvnB-95">
          <mxGeometry x="90" y="90" width="90" height="30" as="geometry" />
        </mxCell>
        <mxCell id="iOU1mYCxeO6ieShpGvnB-94" value="" style="shape=partialRectangle;top=0;left=0;bottom=0;fillColor=none;stokeWidth=1;dashed=1;align=left;verticalAlign=middle;spacingLeft=4;spacingRight=4;overflow=hidden;rotatable=0;points=[];portConstraint=eastwest;part=1;" vertex="1" connectable="0" parent="iOU1mYCxeO6ieShpGvnB-93">
          <mxGeometry width="30" height="30" as="geometry" />
        </mxCell>
        <mxCell id="iOU1mYCxeO6ieShpGvnB-96" value="" style="group" vertex="1" connectable="0" parent="1">
          <mxGeometry x="360" y="800" width="180" height="120" as="geometry" />
        </mxCell>
        <mxCell id="iOU1mYCxeO6ieShpGvnB-97" value="shop_mvideo" style="shape=table;startSize=30;container=1;collapsible=1;childLayout=tableLayout;fixedRows=1;rowLines=0;fontStyle=1;align=center;resizeLast=1;html=1;" vertex="1" parent="iOU1mYCxeO6ieShpGvnB-96">
          <mxGeometry width="180" height="120" as="geometry" />
        </mxCell>
        <mxCell id="iOU1mYCxeO6ieShpGvnB-98" value="" style="shape=tableRow;horizontal=0;startSize=0;swimlaneHead=0;swimlaneBody=0;fillColor=none;collapsible=0;dropTarget=0;points=[[0,0.5],[1,0.5]];portConstraint=eastwest;top=0;left=0;right=0;bottom=0;" vertex="1" parent="iOU1mYCxeO6ieShpGvnB-97">
          <mxGeometry y="30" width="180" height="30" as="geometry" />
        </mxCell>
        <mxCell id="iOU1mYCxeO6ieShpGvnB-99" value="" style="shape=partialRectangle;connectable=0;fillColor=none;top=0;left=0;bottom=0;right=0;editable=1;overflow=hidden;whiteSpace=wrap;html=1;" vertex="1" parent="iOU1mYCxeO6ieShpGvnB-98">
          <mxGeometry width="30" height="30" as="geometry">
            <mxRectangle width="30" height="30" as="alternateBounds" />
          </mxGeometry>
        </mxCell>
        <mxCell id="iOU1mYCxeO6ieShpGvnB-100" value="date" style="shape=partialRectangle;connectable=0;fillColor=none;top=0;left=0;bottom=0;right=0;align=left;spacingLeft=6;overflow=hidden;whiteSpace=wrap;html=1;" vertex="1" parent="iOU1mYCxeO6ieShpGvnB-98">
          <mxGeometry x="30" width="150" height="30" as="geometry">
            <mxRectangle width="150" height="30" as="alternateBounds" />
          </mxGeometry>
        </mxCell>
        <mxCell id="iOU1mYCxeO6ieShpGvnB-101" value="" style="shape=tableRow;horizontal=0;startSize=0;swimlaneHead=0;swimlaneBody=0;fillColor=none;collapsible=0;dropTarget=0;points=[[0,0.5],[1,0.5]];portConstraint=eastwest;top=0;left=0;right=0;bottom=0;" vertex="1" parent="iOU1mYCxeO6ieShpGvnB-97">
          <mxGeometry y="60" width="180" height="30" as="geometry" />
        </mxCell>
        <mxCell id="iOU1mYCxeO6ieShpGvnB-102" value="FK" style="shape=partialRectangle;connectable=0;fillColor=none;top=0;left=0;bottom=0;right=0;editable=1;overflow=hidden;whiteSpace=wrap;html=1;" vertex="1" parent="iOU1mYCxeO6ieShpGvnB-101">
          <mxGeometry width="30" height="30" as="geometry">
            <mxRectangle width="30" height="30" as="alternateBounds" />
          </mxGeometry>
        </mxCell>
        <mxCell id="iOU1mYCxeO6ieShpGvnB-103" value="product_id" style="shape=partialRectangle;connectable=0;fillColor=none;top=0;left=0;bottom=0;right=0;align=left;spacingLeft=6;overflow=hidden;whiteSpace=wrap;html=1;" vertex="1" parent="iOU1mYCxeO6ieShpGvnB-101">
          <mxGeometry x="30" width="150" height="30" as="geometry">
            <mxRectangle width="150" height="30" as="alternateBounds" />
          </mxGeometry>
        </mxCell>
        <mxCell id="iOU1mYCxeO6ieShpGvnB-104" value="" style="shape=tableRow;horizontal=0;startSize=0;swimlaneHead=0;swimlaneBody=0;fillColor=none;collapsible=0;dropTarget=0;points=[[0,0.5],[1,0.5]];portConstraint=eastwest;top=0;left=0;right=0;bottom=0;" vertex="1" parent="iOU1mYCxeO6ieShpGvnB-97">
          <mxGeometry y="90" width="180" height="30" as="geometry" />
        </mxCell>
        <mxCell id="iOU1mYCxeO6ieShpGvnB-105" value="" style="shape=partialRectangle;connectable=0;fillColor=none;top=0;left=0;bottom=0;right=0;editable=1;overflow=hidden;whiteSpace=wrap;html=1;" vertex="1" parent="iOU1mYCxeO6ieShpGvnB-104">
          <mxGeometry width="30" height="30" as="geometry">
            <mxRectangle width="30" height="30" as="alternateBounds" />
          </mxGeometry>
        </mxCell>
        <mxCell id="iOU1mYCxeO6ieShpGvnB-106" value="sales_cnt" style="shape=partialRectangle;connectable=0;fillColor=none;top=0;left=0;bottom=0;right=0;align=left;spacingLeft=6;overflow=hidden;whiteSpace=wrap;html=1;" vertex="1" parent="iOU1mYCxeO6ieShpGvnB-104">
          <mxGeometry x="30" width="150" height="30" as="geometry">
            <mxRectangle width="150" height="30" as="alternateBounds" />
          </mxGeometry>
        </mxCell>
        <mxCell id="iOU1mYCxeO6ieShpGvnB-107" value="date" style="shape=partialRectangle;fillColor=none;align=left;verticalAlign=middle;strokeColor=none;spacingLeft=34;rotatable=0;points=[[0,0.5],[1,0.5]];portConstraint=eastwest;dropTarget=0;" vertex="1" parent="iOU1mYCxeO6ieShpGvnB-96">
          <mxGeometry x="90" y="30" width="90" height="30" as="geometry" />
        </mxCell>
        <mxCell id="iOU1mYCxeO6ieShpGvnB-108" value="" style="shape=partialRectangle;top=0;left=0;bottom=0;fillColor=none;stokeWidth=1;dashed=1;align=left;verticalAlign=middle;spacingLeft=4;spacingRight=4;overflow=hidden;rotatable=0;points=[];portConstraint=eastwest;part=1;" vertex="1" connectable="0" parent="iOU1mYCxeO6ieShpGvnB-107">
          <mxGeometry width="30" height="30" as="geometry" />
        </mxCell>
        <mxCell id="iOU1mYCxeO6ieShpGvnB-109" value="int" style="shape=partialRectangle;fillColor=none;align=left;verticalAlign=middle;strokeColor=none;spacingLeft=34;rotatable=0;points=[[0,0.5],[1,0.5]];portConstraint=eastwest;dropTarget=0;" vertex="1" parent="iOU1mYCxeO6ieShpGvnB-96">
          <mxGeometry x="90" y="60" width="90" height="30" as="geometry" />
        </mxCell>
        <mxCell id="iOU1mYCxeO6ieShpGvnB-110" value="" style="shape=partialRectangle;top=0;left=0;bottom=0;fillColor=none;stokeWidth=1;dashed=1;align=left;verticalAlign=middle;spacingLeft=4;spacingRight=4;overflow=hidden;rotatable=0;points=[];portConstraint=eastwest;part=1;" vertex="1" connectable="0" parent="iOU1mYCxeO6ieShpGvnB-109">
          <mxGeometry width="30" height="30" as="geometry" />
        </mxCell>
        <mxCell id="iOU1mYCxeO6ieShpGvnB-111" value="int" style="shape=partialRectangle;fillColor=none;align=left;verticalAlign=middle;strokeColor=none;spacingLeft=34;rotatable=0;points=[[0,0.5],[1,0.5]];portConstraint=eastwest;dropTarget=0;" vertex="1" parent="iOU1mYCxeO6ieShpGvnB-96">
          <mxGeometry x="90" y="90" width="90" height="30" as="geometry" />
        </mxCell>
        <mxCell id="iOU1mYCxeO6ieShpGvnB-112" value="" style="shape=partialRectangle;top=0;left=0;bottom=0;fillColor=none;stokeWidth=1;dashed=1;align=left;verticalAlign=middle;spacingLeft=4;spacingRight=4;overflow=hidden;rotatable=0;points=[];portConstraint=eastwest;part=1;" vertex="1" connectable="0" parent="iOU1mYCxeO6ieShpGvnB-111">
          <mxGeometry width="30" height="30" as="geometry" />
        </mxCell>
        <mxCell id="iOU1mYCxeO6ieShpGvnB-113" value="" style="group" vertex="1" connectable="0" parent="1">
          <mxGeometry x="360" y="630" width="180" height="120" as="geometry" />
        </mxCell>
        <mxCell id="iOU1mYCxeO6ieShpGvnB-114" value="shop_sitilink" style="shape=table;startSize=30;container=1;collapsible=1;childLayout=tableLayout;fixedRows=1;rowLines=0;fontStyle=1;align=center;resizeLast=1;html=1;" vertex="1" parent="iOU1mYCxeO6ieShpGvnB-113">
          <mxGeometry width="180" height="120" as="geometry" />
        </mxCell>
        <mxCell id="iOU1mYCxeO6ieShpGvnB-115" value="" style="shape=tableRow;horizontal=0;startSize=0;swimlaneHead=0;swimlaneBody=0;fillColor=none;collapsible=0;dropTarget=0;points=[[0,0.5],[1,0.5]];portConstraint=eastwest;top=0;left=0;right=0;bottom=0;" vertex="1" parent="iOU1mYCxeO6ieShpGvnB-114">
          <mxGeometry y="30" width="180" height="30" as="geometry" />
        </mxCell>
        <mxCell id="iOU1mYCxeO6ieShpGvnB-116" value="" style="shape=partialRectangle;connectable=0;fillColor=none;top=0;left=0;bottom=0;right=0;editable=1;overflow=hidden;whiteSpace=wrap;html=1;" vertex="1" parent="iOU1mYCxeO6ieShpGvnB-115">
          <mxGeometry width="30" height="30" as="geometry">
            <mxRectangle width="30" height="30" as="alternateBounds" />
          </mxGeometry>
        </mxCell>
        <mxCell id="iOU1mYCxeO6ieShpGvnB-117" value="date" style="shape=partialRectangle;connectable=0;fillColor=none;top=0;left=0;bottom=0;right=0;align=left;spacingLeft=6;overflow=hidden;whiteSpace=wrap;html=1;" vertex="1" parent="iOU1mYCxeO6ieShpGvnB-115">
          <mxGeometry x="30" width="150" height="30" as="geometry">
            <mxRectangle width="150" height="30" as="alternateBounds" />
          </mxGeometry>
        </mxCell>
        <mxCell id="iOU1mYCxeO6ieShpGvnB-118" value="" style="shape=tableRow;horizontal=0;startSize=0;swimlaneHead=0;swimlaneBody=0;fillColor=none;collapsible=0;dropTarget=0;points=[[0,0.5],[1,0.5]];portConstraint=eastwest;top=0;left=0;right=0;bottom=0;" vertex="1" parent="iOU1mYCxeO6ieShpGvnB-114">
          <mxGeometry y="60" width="180" height="30" as="geometry" />
        </mxCell>
        <mxCell id="iOU1mYCxeO6ieShpGvnB-119" value="FK" style="shape=partialRectangle;connectable=0;fillColor=none;top=0;left=0;bottom=0;right=0;editable=1;overflow=hidden;whiteSpace=wrap;html=1;" vertex="1" parent="iOU1mYCxeO6ieShpGvnB-118">
          <mxGeometry width="30" height="30" as="geometry">
            <mxRectangle width="30" height="30" as="alternateBounds" />
          </mxGeometry>
        </mxCell>
        <mxCell id="iOU1mYCxeO6ieShpGvnB-120" value="product_id" style="shape=partialRectangle;connectable=0;fillColor=none;top=0;left=0;bottom=0;right=0;align=left;spacingLeft=6;overflow=hidden;whiteSpace=wrap;html=1;" vertex="1" parent="iOU1mYCxeO6ieShpGvnB-118">
          <mxGeometry x="30" width="150" height="30" as="geometry">
            <mxRectangle width="150" height="30" as="alternateBounds" />
          </mxGeometry>
        </mxCell>
        <mxCell id="iOU1mYCxeO6ieShpGvnB-121" value="" style="shape=tableRow;horizontal=0;startSize=0;swimlaneHead=0;swimlaneBody=0;fillColor=none;collapsible=0;dropTarget=0;points=[[0,0.5],[1,0.5]];portConstraint=eastwest;top=0;left=0;right=0;bottom=0;" vertex="1" parent="iOU1mYCxeO6ieShpGvnB-114">
          <mxGeometry y="90" width="180" height="30" as="geometry" />
        </mxCell>
        <mxCell id="iOU1mYCxeO6ieShpGvnB-122" value="" style="shape=partialRectangle;connectable=0;fillColor=none;top=0;left=0;bottom=0;right=0;editable=1;overflow=hidden;whiteSpace=wrap;html=1;" vertex="1" parent="iOU1mYCxeO6ieShpGvnB-121">
          <mxGeometry width="30" height="30" as="geometry">
            <mxRectangle width="30" height="30" as="alternateBounds" />
          </mxGeometry>
        </mxCell>
        <mxCell id="iOU1mYCxeO6ieShpGvnB-123" value="sales_cnt" style="shape=partialRectangle;connectable=0;fillColor=none;top=0;left=0;bottom=0;right=0;align=left;spacingLeft=6;overflow=hidden;whiteSpace=wrap;html=1;" vertex="1" parent="iOU1mYCxeO6ieShpGvnB-121">
          <mxGeometry x="30" width="150" height="30" as="geometry">
            <mxRectangle width="150" height="30" as="alternateBounds" />
          </mxGeometry>
        </mxCell>
        <mxCell id="iOU1mYCxeO6ieShpGvnB-124" value="date" style="shape=partialRectangle;fillColor=none;align=left;verticalAlign=middle;strokeColor=none;spacingLeft=34;rotatable=0;points=[[0,0.5],[1,0.5]];portConstraint=eastwest;dropTarget=0;" vertex="1" parent="iOU1mYCxeO6ieShpGvnB-113">
          <mxGeometry x="90" y="30" width="90" height="30" as="geometry" />
        </mxCell>
        <mxCell id="iOU1mYCxeO6ieShpGvnB-125" value="" style="shape=partialRectangle;top=0;left=0;bottom=0;fillColor=none;stokeWidth=1;dashed=1;align=left;verticalAlign=middle;spacingLeft=4;spacingRight=4;overflow=hidden;rotatable=0;points=[];portConstraint=eastwest;part=1;" vertex="1" connectable="0" parent="iOU1mYCxeO6ieShpGvnB-124">
          <mxGeometry width="30" height="30" as="geometry" />
        </mxCell>
        <mxCell id="iOU1mYCxeO6ieShpGvnB-126" value="int" style="shape=partialRectangle;fillColor=none;align=left;verticalAlign=middle;strokeColor=none;spacingLeft=34;rotatable=0;points=[[0,0.5],[1,0.5]];portConstraint=eastwest;dropTarget=0;" vertex="1" parent="iOU1mYCxeO6ieShpGvnB-113">
          <mxGeometry x="90" y="60" width="90" height="30" as="geometry" />
        </mxCell>
        <mxCell id="iOU1mYCxeO6ieShpGvnB-127" value="" style="shape=partialRectangle;top=0;left=0;bottom=0;fillColor=none;stokeWidth=1;dashed=1;align=left;verticalAlign=middle;spacingLeft=4;spacingRight=4;overflow=hidden;rotatable=0;points=[];portConstraint=eastwest;part=1;" vertex="1" connectable="0" parent="iOU1mYCxeO6ieShpGvnB-126">
          <mxGeometry width="30" height="30" as="geometry" />
        </mxCell>
        <mxCell id="iOU1mYCxeO6ieShpGvnB-128" value="int" style="shape=partialRectangle;fillColor=none;align=left;verticalAlign=middle;strokeColor=none;spacingLeft=34;rotatable=0;points=[[0,0.5],[1,0.5]];portConstraint=eastwest;dropTarget=0;" vertex="1" parent="iOU1mYCxeO6ieShpGvnB-113">
          <mxGeometry x="90" y="90" width="90" height="30" as="geometry" />
        </mxCell>
        <mxCell id="iOU1mYCxeO6ieShpGvnB-129" value="" style="shape=partialRectangle;top=0;left=0;bottom=0;fillColor=none;stokeWidth=1;dashed=1;align=left;verticalAlign=middle;spacingLeft=4;spacingRight=4;overflow=hidden;rotatable=0;points=[];portConstraint=eastwest;part=1;" vertex="1" connectable="0" parent="iOU1mYCxeO6ieShpGvnB-128">
          <mxGeometry width="30" height="30" as="geometry" />
        </mxCell>
        <mxCell id="iOU1mYCxeO6ieShpGvnB-131" style="edgeStyle=orthogonalEdgeStyle;rounded=0;orthogonalLoop=1;jettySize=auto;html=1;exitX=1;exitY=0.5;exitDx=0;exitDy=0;entryX=0;entryY=0.5;entryDx=0;entryDy=0;startArrow=ERmany;startFill=0;endArrow=baseDash;endFill=0;" edge="1" parent="1" source="iOU1mYCxeO6ieShpGvnB-109" target="iOU1mYCxeO6ieShpGvnB-80">
          <mxGeometry relative="1" as="geometry" />
        </mxCell>
        <mxCell id="iOU1mYCxeO6ieShpGvnB-132" style="edgeStyle=orthogonalEdgeStyle;rounded=0;orthogonalLoop=1;jettySize=auto;html=1;exitX=1;exitY=0.5;exitDx=0;exitDy=0;endArrow=baseDash;endFill=0;startArrow=ERmany;startFill=0;" edge="1" parent="1" source="iOU1mYCxeO6ieShpGvnB-126" target="iOU1mYCxeO6ieShpGvnB-80">
          <mxGeometry relative="1" as="geometry" />
        </mxCell>
        <mxCell id="iOU1mYCxeO6ieShpGvnB-133" style="edgeStyle=orthogonalEdgeStyle;rounded=0;orthogonalLoop=1;jettySize=auto;html=1;exitX=1;exitY=0.5;exitDx=0;exitDy=0;startArrow=ERmany;startFill=0;endArrow=baseDash;endFill=0;" edge="1" parent="1" source="iOU1mYCxeO6ieShpGvnB-71" target="iOU1mYCxeO6ieShpGvnB-80">
          <mxGeometry relative="1" as="geometry" />
        </mxCell>
        <mxCell id="iOU1mYCxeO6ieShpGvnB-134" style="edgeStyle=orthogonalEdgeStyle;rounded=0;orthogonalLoop=1;jettySize=auto;html=1;exitX=1;exitY=0.5;exitDx=0;exitDy=0;endArrow=baseDash;endFill=0;startArrow=ERmany;startFill=0;" edge="1" parent="1" source="iOU1mYCxeO6ieShpGvnB-14" target="iOU1mYCxeO6ieShpGvnB-80">
          <mxGeometry relative="1" as="geometry" />
        </mxCell>
        <mxCell id="iOU1mYCxeO6ieShpGvnB-135" value="" style="group" vertex="1" connectable="0" parent="1">
          <mxGeometry x="70" y="270" width="180" height="120" as="geometry" />
        </mxCell>
        <mxCell id="iOU1mYCxeO6ieShpGvnB-136" value="shops" style="shape=table;startSize=30;container=1;collapsible=1;childLayout=tableLayout;fixedRows=1;rowLines=0;fontStyle=1;align=center;resizeLast=1;html=1;" vertex="1" parent="iOU1mYCxeO6ieShpGvnB-135">
          <mxGeometry width="180" height="90" as="geometry" />
        </mxCell>
        <mxCell id="iOU1mYCxeO6ieShpGvnB-137" value="" style="shape=tableRow;horizontal=0;startSize=0;swimlaneHead=0;swimlaneBody=0;fillColor=none;collapsible=0;dropTarget=0;points=[[0,0.5],[1,0.5]];portConstraint=eastwest;top=0;left=0;right=0;bottom=0;" vertex="1" parent="iOU1mYCxeO6ieShpGvnB-136">
          <mxGeometry y="30" width="180" height="30" as="geometry" />
        </mxCell>
        <mxCell id="iOU1mYCxeO6ieShpGvnB-138" value="" style="shape=partialRectangle;connectable=0;fillColor=none;top=0;left=0;bottom=0;right=0;editable=1;overflow=hidden;whiteSpace=wrap;html=1;" vertex="1" parent="iOU1mYCxeO6ieShpGvnB-137">
          <mxGeometry width="30" height="30" as="geometry">
            <mxRectangle width="30" height="30" as="alternateBounds" />
          </mxGeometry>
        </mxCell>
        <mxCell id="iOU1mYCxeO6ieShpGvnB-139" value="shop_id" style="shape=partialRectangle;connectable=0;fillColor=none;top=0;left=0;bottom=0;right=0;align=left;spacingLeft=6;overflow=hidden;whiteSpace=wrap;html=1;" vertex="1" parent="iOU1mYCxeO6ieShpGvnB-137">
          <mxGeometry x="30" width="150" height="30" as="geometry">
            <mxRectangle width="150" height="30" as="alternateBounds" />
          </mxGeometry>
        </mxCell>
        <mxCell id="iOU1mYCxeO6ieShpGvnB-140" value="" style="shape=tableRow;horizontal=0;startSize=0;swimlaneHead=0;swimlaneBody=0;fillColor=none;collapsible=0;dropTarget=0;points=[[0,0.5],[1,0.5]];portConstraint=eastwest;top=0;left=0;right=0;bottom=0;" vertex="1" parent="iOU1mYCxeO6ieShpGvnB-136">
          <mxGeometry y="60" width="180" height="30" as="geometry" />
        </mxCell>
        <mxCell id="iOU1mYCxeO6ieShpGvnB-141" value="" style="shape=partialRectangle;connectable=0;fillColor=none;top=0;left=0;bottom=0;right=0;editable=1;overflow=hidden;whiteSpace=wrap;html=1;" vertex="1" parent="iOU1mYCxeO6ieShpGvnB-140">
          <mxGeometry width="30" height="30" as="geometry">
            <mxRectangle width="30" height="30" as="alternateBounds" />
          </mxGeometry>
        </mxCell>
        <mxCell id="iOU1mYCxeO6ieShpGvnB-142" value="shop_name" style="shape=partialRectangle;connectable=0;fillColor=none;top=0;left=0;bottom=0;right=0;align=left;spacingLeft=6;overflow=hidden;whiteSpace=wrap;html=1;" vertex="1" parent="iOU1mYCxeO6ieShpGvnB-140">
          <mxGeometry x="30" width="150" height="30" as="geometry">
            <mxRectangle width="150" height="30" as="alternateBounds" />
          </mxGeometry>
        </mxCell>
        <mxCell id="iOU1mYCxeO6ieShpGvnB-146" value="serial" style="shape=partialRectangle;fillColor=none;align=left;verticalAlign=middle;strokeColor=none;spacingLeft=34;rotatable=0;points=[[0,0.5],[1,0.5]];portConstraint=eastwest;dropTarget=0;" vertex="1" parent="iOU1mYCxeO6ieShpGvnB-135">
          <mxGeometry x="90" y="30" width="90" height="30" as="geometry" />
        </mxCell>
        <mxCell id="iOU1mYCxeO6ieShpGvnB-147" value="" style="shape=partialRectangle;top=0;left=0;bottom=0;fillColor=none;stokeWidth=1;dashed=1;align=left;verticalAlign=middle;spacingLeft=4;spacingRight=4;overflow=hidden;rotatable=0;points=[];portConstraint=eastwest;part=1;" vertex="1" connectable="0" parent="iOU1mYCxeO6ieShpGvnB-146">
          <mxGeometry width="30" height="30" as="geometry" />
        </mxCell>
        <mxCell id="iOU1mYCxeO6ieShpGvnB-148" value="varchar" style="shape=partialRectangle;fillColor=none;align=left;verticalAlign=middle;strokeColor=none;spacingLeft=34;rotatable=0;points=[[0,0.5],[1,0.5]];portConstraint=eastwest;dropTarget=0;" vertex="1" parent="iOU1mYCxeO6ieShpGvnB-135">
          <mxGeometry x="90" y="60" width="90" height="30" as="geometry" />
        </mxCell>
        <mxCell id="iOU1mYCxeO6ieShpGvnB-149" value="" style="shape=partialRectangle;top=0;left=0;bottom=0;fillColor=none;stokeWidth=1;dashed=1;align=left;verticalAlign=middle;spacingLeft=4;spacingRight=4;overflow=hidden;rotatable=0;points=[];portConstraint=eastwest;part=1;" vertex="1" connectable="0" parent="iOU1mYCxeO6ieShpGvnB-148">
          <mxGeometry width="30" height="30" as="geometry" />
        </mxCell>
        <mxCell id="iOU1mYCxeO6ieShpGvnB-152" style="edgeStyle=orthogonalEdgeStyle;rounded=0;orthogonalLoop=1;jettySize=auto;html=1;exitX=1;exitY=0.5;exitDx=0;exitDy=0;entryX=0;entryY=0.5;entryDx=0;entryDy=0;endArrow=ERmany;endFill=0;" edge="1" parent="1" source="iOU1mYCxeO6ieShpGvnB-146" target="iOU1mYCxeO6ieShpGvnB-5">
          <mxGeometry relative="1" as="geometry" />
        </mxCell>
      </root>
    </mxGraphModel>
  </diagram>
</mxfile>
